inDegrees=yes
name=ik_lifting_orientations
DataType=double
version=3
OpenSimVersion=4.5-2024-01-10-34fd6af
endheader
time	pelvis_tilt	pelvis_list	pelvis_rotation	pelvis_tx	pelvis_ty	pelvis_tz	hip_flexion_r	hip_adduction_r	hip_rotation_r	knee_angle_r	knee_angle_r_beta	ankle_angle_r	subtalar_angle_r	mtp_angle_r	hip_flexion_l	hip_adduction_l	hip_rotation_l	knee_angle_l	knee_angle_l_beta	ankle_angle_l	subtalar_angle_l	mtp_angle_l	lumbar_extension	lumbar_bending	lumbar_rotation	arm_flex_r	arm_add_r	arm_rot_r	elbow_flex_r	pro_sup_r	wrist_flex_r	wrist_dev_r	arm_flex_l	arm_add_l	arm_rot_l	elbow_flex_l	pro_sup_l	wrist_flex_l	wrist_dev_l
0.5600000000000001	-8.392312810471253	-17.50969643368524	34.04508303658952	0	0.9399999998679526	0	41.29406729638809	-10.38519709853763	0	62.16935792829635	1.085059989699612	-5.158270157319666	0	0	41.29406729638809	-10.38519709853763	0	62.16935792829635	1.085059989699612	-5.158270157319666	0	0	-12.90026606007509	12.5293183432219	-6.685834610744974	33.60988789581886	-5.537013529240614	-20.37001687505176	9.958948148264438	0.5489255004531858	0	0	0	-10.09538621051163	0	89.49617329710469	0.5489255004531858	0	0
0.57	-8.397386181256758	-17.80287886083419	35.05541957699415	0	0.9399999998679526	0	41.29509340907521	-10.38482521794159	0	62.16888709234821	1.08505177206208	-5.158070840065783	0	0	41.29509340907521	-10.38482521794159	0	62.16888709234821	1.08505177206208	-5.158070840065783	0	0	-12.55667773570261	12.99236119418022	-7.604325407655818	32.08297883080417	-6.148276742327123	-20.20610948742872	10.5713331598066	0.5488199965926363	0	0	0	-10.09608117635897	0	89.49627009973462	0.5488199965926363	0	0
0.58	-8.435145324376334	-17.7969733223233	35.04429620419065	0	0.9399999998679526	0	41.29602964095638	-10.38448563183446	0	62.16845800262079	1.08504428303355	-5.157888832451532	0	0	41.29602964095638	-10.38448563183446	0	62.16845800262079	1.08504428303355	-5.157888832451532	0	0	-12.51763226307234	12.97502377844325	-7.63020092852364	31.89316842027124	-6.081750011597758	-19.6368812176481	10.7629850992572	0.5487237723591772	0	0	0	-10.09671479286602	0	89.49635838805632	0.5487237723591772	0	0
0.59	-8.424059551566526	-17.80206337945775	35.04679080367833	0	0.9399999998679526	0	41.29736630378232	-10.38400091087204	0	62.16784563244329	1.085033595157712	-5.157629097010521	0	0	41.29736630378232	-10.38400091087204	0	62.16784563244329	1.085033595157712	-5.157629097010521	0	0	-12.50967954308909	12.97528617452438	-7.629858671998473	31.40963958214569	-6.532528694502802	-19.69994804896901	11.14488480241906	0.5485864038635802	0	0	0	-10.09761925122107	0	89.49648442734485	0.5485864038635802	0	0
0.6	-7.848589344739462	-16.85980858503168	35.3542160374203	0	0.9399999998679526	0	41.29837830082339	-10.38363613562878	0	62.16737996410516	1.085025467711989	-5.157433894054341	0	0	41.29837830082339	-10.38363613562878	0	62.16737996410516	1.085025467711989	-5.157433894054341	0	0	-13.44897399512804	12.57427797247164	-7.875647302999657	30.36376993625655	-6.234739211327433	-19.38285523287965	11.80020970758051	0.5484822161139307	0	0	0	-10.09830624083552	0	89.49658002241046	0.5484822161139307	0	0
0.61	-7.852577879237739	-16.87053750283131	36.88132342908659	0	0.9399999998679526	0	41.29937626229052	-10.38327751754729	0	62.16691984557393	1.08501743712867	-5.157242129708285	0	0	41.29937626229052	-10.38327751754729	0	62.16691984557393	1.08501743712867	-5.157242129708285	0	0	-13.13084205405156	12.91804206225443	-9.358346347100204	29.32953917144924	-6.363398305055376	-19.73728677443945	12.39129487051135	0.5483793876408424	0	0	0	-10.09898472206683	0	89.49667437030486	0.5483793876408424	0	0
0.62	-7.893643783462196	-16.88639479160866	36.88337424806711	0	0.9399999998679526	0	41.30096880091087	-10.38270561265474	0	62.16618602918441	1.085004629616568	-5.156936460465453	0	0	41.30096880091087	-10.38270561265474	0	62.16618602918441	1.085004629616568	-5.156936460465453	0	0	-12.17134938936745	13.24013973169785	-10.3014674328464	27.52621141924873	-6.404701956890447	-19.14091259291972	13.53752837693802	0.5482153143433273	0	0	0	-10.10006713429323	0	89.49682491197547	0.5482153143433273	0	0
0.63	-7.918369861282638	-17.17347833861496	37.87487677998706	0	0.9399999998679526	0	41.30401003535565	-10.38161230871119	0	62.16478948530702	1.084980255327759	-5.15635246280017	0	0	41.30401003535565	-10.38161230871119	0	62.16478948530702	1.084980255327759	-5.15635246280017	0	0	-11.84330309090847	12.97309200568717	-11.70129702927158	26.39481970089091	-5.897380252832836	-19.17869420570156	15.11160862536059	0.547902333699042	0	0	0	-10.10212969609423	0	89.49711208014166	0.547902333699042	0	0
0.64	-8.415894104148778	-15.45031123422783	38.43481706184139	0	0.9399999998679526	0	41.3076121238943	-10.38032231854326	0	62.16313351949425	1.084951353272025	-5.155664340707583	0	0	41.3076121238943	-10.38032231854326	0	62.16313351949425	1.084951353272025	-5.155664340707583	0	0	-12.78508589194217	11.15931775424559	-13.33667476078774	24.70933530141074	-4.847730017012791	-19.24101088123184	17.29440315746976	0.5475313861413854	0	0	0	-10.10457539046641	0	89.49745243451675	0.5475313861413854	0	0
0.65	-9.562187153006136	-12.59090365749712	40.06423642124861	0	0.9399999998679526	0	41.31080303694084	-10.37919317950496	0	62.16165699393393	1.084925583039508	-5.155063996893927	0	0	41.31080303694084	-10.37919317950496	0	62.16165699393393	1.084925583039508	-5.155063996893927	0	0	-11.89415347421192	8.160445385590844	-16.37387163925166	23.18252794344682	-5.211250309659975	-19.01119892649388	17.81690510184362	0.5472018371855782	0	0	0	-10.10675294465957	0	89.49775480457826	0.5472018371855782	0	0
0.66	-10.68852908347769	-12.1942692835104	41.35096753690959	0	0.9399999998679526	0	41.31345192779398	-10.3782460129773	0	62.16044050896409	1.084904351371483	-5.154559277711994	0	0	41.31345192779398	-10.3782460129773	0	62.16044050896409	1.084904351371483	-5.154559277711994	0	0	-11.07894891369313	7.460651004665085	-18.09143676836839	22.06182240856544	-3.684022823014359	-19.04906046034264	20.06542453417714	0.5469290703402774	0	0	0	-10.10855107387454	0	89.49800507550647	0.5469290703402774	0	0
0.67	-10.18490864411408	-11.2045676880161	41.63643777416588	0	0.9399999998679526	0	41.31459023983128	-10.37784053785021	0	62.15991583895633	1.084895194152361	-5.154343340682127	0	0	41.31459023983128	-10.37784053785021	0	62.15991583895633	1.084895194152361	-5.154343340682127	0	0	-11.18998635737071	7.292855606343984	-19.1530944382945	21.33186508649322	-4.168645215848828	-18.33428597555761	20.14977162787535	0.5468116847474007	0	0	0	-10.10932587754349	0	89.49811277995359	0.5468116847474007	0	0
0.68	-11.19365725036718	-16.10310218753526	41.16248239235168	0	0.9399999998679526	0	41.31822645716836	-10.37655624821203	0	62.15823627794081	1.084865880282652	-5.153661490607379	0	0	41.31822645716836	-10.37655624821203	0	62.15823627794081	1.084865880282652	-5.153661490607379	0	0	-6.544917194518623	9.74660620855537	-19.72851397880278	20.92213430248606	-3.270265260038774	-17.09703548978321	20.72587147883535	0.5464362469642022	0	0	0	-10.11180575206044	0	89.49845725425273	0.5464362469642022	0	0
0.6899999999999999	-11.24724464092882	-16.40968370669121	42.17236620358462	0	0.9399999998679526	0	41.31972518126442	-10.37602128278457	0	62.15754829080733	1.084853872641962	-5.153376697357074	0	0	41.31972518126442	-10.37602128278457	0	62.15754829080733	1.084853872641962	-5.153376697357074	0	0	-5.668712047489007	9.197746966045875	-20.37250424610201	20.43609870930811	-2.546931377490188	-16.97172689881829	21.39187524759904	0.5462818929444423	0	0	0	-10.11282337534707	0	89.49859887822518	0.5462818929444423	0	0
0.7	-12.3225660738725	-15.92890515893407	41.93519530546673	0	0.9399999998679526	0	41.32135355139754	-10.37544341803651	0	62.15679784713218	1.084840774928979	-5.153069490625213	0	0	41.32135355139754	-10.37544341803651	0	62.15679784713218	1.084840774928979	-5.153069490625213	0	0	-3.739567177130527	8.602941455025794	-20.81767450683557	19.21855193671365	-4.326660185849748	-16.67650396608537	21.99790166212918	0.5461139130238578	0	0	0	-10.1139322924884	0	89.49875300433425	0.5461139130238578	0	0
0.71	-12.29435966368028	-15.70781565189765	42.41301808591846	0	0.9399999998679526	0	41.32279764806865	-10.37492883102849	0	62.1561350391807	1.084829206747918	-5.152795772703207	0	0	41.32279764806865	-10.37492883102849	0	62.1561350391807	1.084829206747918	-5.152795772703207	0	0	-2.504793813511552	7.776978407932829	-21.75322640823989	18.88423270315084	-4.212817344460529	-16.23782736859835	20.82161999399235	0.5459651654400446	0	0	0	-10.11491299531999	0	89.49888948425132	0.5459651654400446	0	0
0.72	-12.33487876314996	-15.9358232617407	41.9285855543202	0	0.9399999998679526	0	41.32446534685485	-10.3743343856454	0	62.15537035164116	1.084815860432604	-5.152479633657445	0	0	41.32446534685485	-10.3743343856454	0	62.15537035164116	1.084815860432604	-5.152479633657445	0	0	-1.199848130106461	6.478585987305029	-22.11600821401177	18.62125010056941	-3.112553564506554	-14.90095985568226	20.40062972273683	0.5457934354438043	0	0	0	-10.11604491643924	0	89.49904705115046	0.5457934354438043	0	0
0.73	-12.83764844203131	-16.91594977945459	41.59206744244343	0	0.9399999998679526	0	41.32568130444764	-10.37390278818845	0	62.15481125933026	1.084806102430956	-5.152250337533937	0	0	41.32568130444764	-10.37390278818845	0	62.15481125933026	1.084806102430956	-5.152250337533937	0	0	0.660002994005992	7.025841349047273	-22.74334764825254	17.94110093711522	-3.842804358012729	-14.01667147096741	21.41538455695766	0.5456680776773386	0	0	0	-10.11687195962964	0	89.49916207028213	0.5456680776773386	0	0
